# xmcd
#
# Track frame offsets:
#  150
#  12841
#  24996
#  36575
#  47587
#  62296
#  75134
#  91365
#  104255
#  115379
#  126745
#  137068
#  150673
#  163262
#  173608
#  186025
#  201184
#  212781
#  226654
#  239545
#  252857
#  264278
#  278159
#  290585
#  303671
#  315926
#
# Disc length: 4378 seconds
#
# Revision: 2
# Processed by: cddbd v1.5.2PL0 Copyright (c) Steve Scherf et al.
# Submitted via: AltoMP3_Maker 3.0
#
DISCID=6111181a
DTITLE=B. B. King - The Essence Of B.B.King
DYEAR=2008
DGENRE=Blues
TTITLE0=Got The Blues
TTITLE1=Miss Martha King
TTITLE2=Take A Swing With Me
TTITLE3=When Your baby Packs Up and Goes
TTITLE4=B.B.'s Boogie
TTITLE5=Mistreated Woman
TTITLE6=The Other Night Blues
TTITLE7=Walkin' and Cryin'
TTITLE8=B.B. Blues
TTITLE9=She's Dynamite
TTITLE10=That Ain't The Way To Do It
TTITLE11=Three O'Clock Blues
TTITLE12=Boogie Woogie Woman
TTITLE13=Fine Looking Woman
TTITLE14=I Gotta Find My baby
TTITLE15=My Own Fault Darlin'
TTITLE16=Shake It Up and Go
TTITLE17=She Don't Move Me No More
TTITLE18=Some Day, Somewhere
TTITLE19=Story From My Heart and Soul
TTITLE20=You Didn't Want Me
TTITLE21=You Know I Love You
TTITLE22=Highway Bound
TTITLE23=Neighbourhood Affair
TTITLE24=Please Hurry Home
TTITLE25=Please Love Me
EXTD=
EXTT0=
EXTT1=
EXTT2=
EXTT3=
EXTT4=
EXTT5=
EXTT6=
EXTT7=
EXTT8=
EXTT9=
EXTT10=
EXTT11=
EXTT12=
EXTT13=
EXTT14=
EXTT15=
EXTT16=
EXTT17=
EXTT18=
EXTT19=
EXTT20=
EXTT21=
EXTT22=
EXTT23=
EXTT24=
EXTT25=
PLAYORDER=
